<svg width="64" height="64" viewBox="0 0 512 512" fill="none" xmlns="http://www.w3.org/2000/svg">
  <rect x="32" y="32" width="448" height="448" rx="120" fill="#05070B"/>
  <rect x="32" y="32" width="448" height="448" rx="120" fill="url(#bg)"/>
  <rect x="120" y="196" width="28" height="120" rx="14" fill="#F8FBFF"/>
  <rect x="156" y="170" width="34" height="172" rx="17" fill="#F8FBFF"/>
  <rect x="322" y="170" width="34" height="172" rx="17" fill="#F8FBFF"/>
  <rect x="364" y="196" width="28" height="120" rx="14" fill="#F8FBFF"/>
  <rect x="176" y="238" width="160" height="36" rx="18" fill="#F8FBFF"/>
  <path d="M184 256H220L244 216L270 292L294 244H328" stroke="url(#pulse)" stroke-width="24" stroke-linecap="round" stroke-linejoin="round"/>
  <circle cx="244" cy="216" r="12" fill="#8AB4FF"/>
  <circle cx="270" cy="292" r="12" fill="#8AB4FF"/>
  <defs>
    <linearGradient id="bg" x1="96" y1="48" x2="416" y2="464" gradientUnits="userSpaceOnUse">
      <stop stop-color="#0D1A33"/>
      <stop offset="0.52" stop-color="#08111F"/>
      <stop offset="1" stop-color="#05070B"/>
    </linearGradient>
    <linearGradient id="pulse" x1="184" y1="214" x2="328" y2="282" gradientUnits="userSpaceOnUse">
      <stop stop-color="#125BFF"/>
      <stop offset="1" stop-color="#8AB4FF"/>
    </linearGradient>
  </defs>
</svg>
